<?xml version="1.0" standalone="no"?>
<!DOCTYPE svg PUBLIC "-//W3C//DTD SVG 20010904//EN"
 "http://www.w3.org/TR/2001/REC-SVG-20010904/DTD/svg10.dtd">
<svg version="1.0" xmlns="http://www.w3.org/2000/svg"
 width="1024.000000pt" height="1024.000000pt" viewBox="0 0 1024.000000 1024.000000"
 preserveAspectRatio="xMidYMid meet">
<metadata>
Created by potrace 1.11, written by Peter Selinger 2001-2013
</metadata>
<g transform="translate(0.000000,1024.000000) scale(0.100000,-0.100000)"
fill="#000000" stroke="none">
<path d="M5 10228 c-3 -7 -4 -2310 -3 -5118 l3 -5105 5115 0 5115 0 0 5115 0
5115 -5113 3 c-4085 2 -5114 0 -5117 -10z m10175 -5108 l0 -5060 -2583 0
-2582 0 -794 794 -794 794 1603 1606 c882 883 1611 1606 1620 1606 23 0 355
-95 612 -176 305 -95 420 -124 529 -131 198 -12 328 42 564 239 152 126 1035
1007 1035 1032 0 25 -3645 3676 -3670 3676 -24 0 -964 -950 -1068 -1080 -158
-198 -221 -357 -207 -523 8 -102 39 -225 120 -487 86 -276 117 -379 160 -537
l35 -128 -982 -983 c-541 -541 -1266 -1263 -1611 -1604 l-628 -622 -740 740
-739 739 0 2582 0 2583 5060 0 5060 0 0 -5060z m-3587 3382 l867 -867 -190
-190 -190 -190 -870 870 -870 870 187 187 c103 104 190 188 193 188 3 0 395
-390 873 -868z m2132 -3223 c-147 -149 -414 -397 -500 -464 -148 -116 -263
-165 -387 -165 -114 0 -145 8 -738 187 -146 44 -305 91 -355 103 l-90 23 -433
431 -432 431 642 642 643 643 870 -870 870 -870 -90 -91z m-3510 111 l-435
-435 -95 95 -95 95 -565 -565 -565 -565 95 -95 95 -95 -660 -660 -660 -660
-417 418 -418 417 1660 1660 1660 1660 417 -417 418 -418 -435 -435z m-267
-603 l92 -92 -565 -565 -565 -565 -95 95 -95 95 562 562 c310 310 565 563 568
563 3 0 47 -42 98 -93z m-1808 -3249 c0 -13 -53 -9 -111 8 -157 47 -388 214
-699 505 l-162 152 78 78 79 79 407 -407 c225 -225 408 -411 408 -415z"/>
</g>
</svg>
